<svg width="43" height="46" viewBox="0 0 43 46" fill="none" xmlns="http://www.w3.org/2000/svg">
<path d="M30.3332 44.8333V36.7708C30.4113 35.7774 30.2771 34.7788 29.9395 33.8412C29.6018 32.9037 29.0684 32.0488 28.3748 31.3333C34.9165 30.6042 41.7915 28.125 41.7915 16.75C41.791 13.8413 40.6721 11.0442 38.6665 8.93751C39.6162 6.39273 39.5491 3.57991 38.479 1.08335C38.479 1.08335 36.0207 0.354179 30.3332 4.16668C25.5582 2.87256 20.5248 2.87256 15.7498 4.16668C10.0623 0.354179 7.604 1.08335 7.604 1.08335C6.53395 3.57991 6.4668 6.39273 7.4165 8.93751C5.39594 11.0598 4.27593 13.8822 4.2915 16.8125C4.2915 28.1042 11.1665 30.5833 17.7082 31.3958C17.0227 32.1041 16.4941 32.9488 16.1567 33.8748C15.8193 34.8009 15.6807 35.7876 15.7498 36.7708V44.8333M15.7498 38.5833C5.33317 41.7083 5.33317 33.375 1.1665 32.3333L15.7498 38.5833Z" stroke="#BE24A7" stroke-width="2" stroke-linecap="round" stroke-linejoin="round"/>
</svg>
